<svg xmlns="http://www.w3.org/2000/svg" width="174" height="314" viewBox="0 0 174 314">
  <g id="Vector_Smart_Object" data-name="Vector Smart Object" transform="translate(-62.658 -71.938)">
    <g id="Group_29" data-name="Group 29">
      <g id="Group_26" data-name="Group 26">
        <path id="Path_52" data-name="Path 52" d="M204.44,321.571a9.457,9.457,0,0,1,1.494,2.161,62.5,62.5,0,0,1,3.233,6.378,72.482,72.482,0,0,1,5.73,22.837,90.015,90.015,0,0,1-1.488,23.491c-.53,2.963-1.033,5.342-1.409,6.981a9.563,9.563,0,0,1-.726,2.519c-.2-.035.343-3.715,1.172-9.65.776-5.925,1.868-14.17,1.075-23.227a81.07,81.07,0,0,0-5.256-22.582C206.079,324.922,204.239,321.682,204.44,321.571Z" fill="#fff"/>
      </g>
      <g id="Group_27" data-name="Group 27">
        <path id="Path_53" data-name="Path 53" d="M217.463,309.251a8.385,8.385,0,0,1,1.495,1.937l.734,1.087c.25.408.5.867.772,1.353A37.2,37.2,0,0,1,222.219,317q.441.962.925,2.011c.3.708.569,1.462.869,2.234.634,1.536,1.107,3.244,1.674,5.02a88,88,0,0,1,2.38,11.863,141.211,141.211,0,0,1,.852,21.881c-.089,2.8-.216,5.057-.342,6.617a8.363,8.363,0,0,1-.333,2.419c-.2,0-.238-3.465-.3-9.045a192.333,192.333,0,0,0-1.245-21.7A100.206,100.206,0,0,0,224.46,326.6c-.523-1.753-.947-3.445-1.523-4.969-.272-.767-.513-1.518-.781-2.224l-.828-2.011C219.161,312.288,217.244,309.389,217.463,309.251Z" fill="#fff"/>
      </g>
      <g id="Group_28" data-name="Group 28">
        <path id="Path_54" data-name="Path 54" d="M128.1,334.787c.18.041-.023,1.766-.589,4.516a56.643,56.643,0,0,1-3.212,10.524,36.159,36.159,0,0,1-2.882,5.391,24.406,24.406,0,0,1-3.2,3.86c-2.062,1.991-3.669,2.785-3.747,2.66-.137-.186,1.24-1.25,3.035-3.324a30.919,30.919,0,0,0,2.836-3.878,44.858,44.858,0,0,0,2.686-5.251,98.549,98.549,0,0,0,3.535-10.221C127.369,336.394,127.909,334.742,128.1,334.787Z" fill="#fff"/>
      </g>
    </g>
    <g id="Group_43" data-name="Group 43">
      <g id="Group_42" data-name="Group 42">
        <g id="Group_39" data-name="Group 39">
          <g id="Group_30" data-name="Group 30">
            <path id="Path_55" data-name="Path 55" d="M171.47,188.716c.217-.141,1.493,1.683,3.957,4.223.62.631,1.3,1.32,2.089,2,.751.716,1.637,1.387,2.543,2.118A41.617,41.617,0,0,0,193.49,203.9c1.124.3,2.189.628,3.211.817,1.012.243,1.97.388,2.846.519,3.508.505,5.739.469,5.751.727.017.17-2.218.6-5.87.369a26.266,26.266,0,0,1-2.968-.346,34.284,34.284,0,0,1-3.362-.7,36.884,36.884,0,0,1-13.934-7.1c-.917-.789-1.8-1.523-2.54-2.305a25.945,25.945,0,0,1-2.018-2.2C172.276,190.863,171.321,188.8,171.47,188.716Z" fill="#0082c7"/>
          </g>
          <path id="Path_56" data-name="Path 56" d="M163.233,159.507s10.532-.566,15.64,1.7c3.495,1.549,24.659,14.462,24.659,14.462l6.719-39.121,5.93-.061s2.2,37.772-4.162,48.345-40.666-11.982-40.666-11.982Z" fill="#ffc5b1"/>
          <path id="Path_57" data-name="Path 57" d="M148.862,155.438c-3.023.3-6.9-.239-9.417-1.932a50.253,50.253,0,0,1-8.033-6.35c-5.588-6.025,3.619-20.107,9.7-21.507,7.275-1.675,14.753,3.077,16.768,10.13a10.094,10.094,0,0,1-.1,5.008c-1.2,5.257-4.814,10.372-10.086,11.586" fill="#8fcebb"/>
          <path id="Path_58" data-name="Path 58" d="M177.585,336.811s-6.614,26.9-8.87,22.606-3.993-15.328-3.582-17.034,3.747-9.544,3.747-9.544Z" fill="#f4b19f"/>
          <path id="Path_59" data-name="Path 59" d="M213.922,139.141c1.738.319.39-.283,2.644.4,3.7-3.52,3.213-9.054,3.213-9.054s6.213-5.211,5.183-6.229-6.425,4.472-6.425,4.472,4.384-7.289,3.206-7.945-5.5,8.59-5.5,8.59,3.184-10.656,1.51-10.434-5.082,10.084-5.082,10.084,1.6-10.093.162-9.934-4.042,13.749-4.042,13.749c-2.647-3.212-4.785-1.125-4.785-1.125l6.71,7.354A25.947,25.947,0,0,1,213.922,139.141Z" fill="#ffc5b1"/>
          <path id="Path_60" data-name="Path 60" d="M149.854,130.409c2.266-.226,7.679,3.231,10.4,9.1a14.544,14.544,0,0,1,.821,11.955c-.821,2.512-2.543,2.826-2.927,3.95-.486,1.425,1.121,5.914,1.121,5.914l-6.412,2.582c-.417-3.084-.89-6.188-4.043-7.527a32.893,32.893,0,0,1-3.554-1.454c-3.006-1.717-4.61-5.472-5.844-8.546C138.493,144.083,136.552,131.737,149.854,130.409Z" fill="#ffc5b1"/>
          <path id="Path_61" data-name="Path 61" d="M155.131,219.616l9.7-6.3s42.8,51.605,45.867,67.666-33.351,56.651-33.351,56.651l-8.464-4.791s11.631-35.407,17.083-44.909c2.067-3.6-17.8-16.89-23.483-28.777C153.178,239.689,155.131,219.616,155.131,219.616Z" fill="#d93c4e"/>
          <path id="Path_62" data-name="Path 62" d="M99.728,300.936s-26.206.412-22.379-2.574,14.408-6.679,16.164-6.583,10.094,1.949,10.094,1.949Z" fill="#ffc5b1"/>
          <path id="Path_63" data-name="Path 63" d="M146.936,217.058l16.3,5.911s16.3,71.466,10.079,82.687-6.416,8.114-34.7,6.064c-21.174-1.535-39.19-10.78-39.19-10.78l4.188-7.212s31.482-9.04,38.3-4.315c0,0-3.556-10.042-8.3-24.217S125.6,236.549,146.936,217.058Z" fill="#ff6072"/>
          <path id="Path_64" data-name="Path 64" d="M167,168.371c0-4.749-1.533-8.183-6.3-8.183s-11.349,1.665-11.349,6.414,11.933,17.875,16.7,17.875S167,173.121,167,168.371Z" fill="#ffc5b1"/>
          <path id="Path_65" data-name="Path 65" d="M163.233,159.507a48.628,48.628,0,0,1,15.191,35.542s-.149,23.41-3.7,29.1a31.827,31.827,0,0,1-12.957,0c-7.54-1.545-14.836-7.088-14.836-7.088s-8.5-28.7-8.47-36.459c.022-5.858,7.78-17.621,7.78-17.621l6.364-1.044,10.3,18.5-2.99-20.238Z" fill="#2c373f"/>
          <path id="Path_66" data-name="Path 66" d="M140.537,148.371s-3.555-.519-3.759,1.818,7.113.064,7.113.064Z" fill="#ffc5b1"/>
          <g id="Group_31" data-name="Group 31">
            <path id="Path_67" data-name="Path 67" d="M153.218,144.553c-.018-.121.66-.26,1.615-.726a2.1,2.1,0,0,0,.639-.441.8.8,0,0,0,.173-.3.062.062,0,0,0-.014-.047c-.015-.01-.005.008-.084.022a5.326,5.326,0,0,1-.573.065,4.955,4.955,0,0,1-1.329-.114,4.736,4.736,0,0,1-2.256-1.2,4.635,4.635,0,0,1-1.131-1.727c-.4-1.117-.221-1.857-.131-1.846.131-.008.172.688.659,1.615a4.533,4.533,0,0,0,3.038,2.362,4.632,4.632,0,0,0,1.119.112,3.5,3.5,0,0,0,.592-.06,1.528,1.528,0,0,1,.461-.055l.214.006c.07,0,.068.129.1.182a1.212,1.212,0,0,1,.009.92,1.46,1.46,0,0,1-.37.538,2.46,2.46,0,0,1-.9.5C153.95,144.722,153.225,144.653,153.218,144.553Z" fill="#ff6072"/>
          </g>
          <path id="Path_68" data-name="Path 68" d="M158.509,144.827l-8.688,3.411S157.456,153.486,158.509,144.827Z" fill="#fff"/>
          <path id="Path_69" data-name="Path 69" d="M146.111,146.468c.308.584,1.266.686,2.138.229s1.329-1.3,1.021-1.885-1.266-.686-2.138-.229S145.8,145.884,146.111,146.468Z" fill="#f4b19f"/>
          <path id="Path_70" data-name="Path 70" d="M155.808,141.344c.263.606,1.209.78,2.113.391s1.426-1.2,1.163-1.8-1.21-.78-2.114-.39S155.545,140.738,155.808,141.344Z" fill="#f4b19f"/>
          <path id="Path_71" data-name="Path 71" d="M159.025,154.323s-3.046,2.542-6.223,1.723c0,0,1.1,1.638,5.313,1.037A2.987,2.987,0,0,1,159.025,154.323Z" fill="#eda091"/>
          <g id="Group_34" data-name="Group 34">
            <g id="Group_32" data-name="Group 32">
              <path id="Path_72" data-name="Path 72" d="M143.692,139.863c-.211-.066-.045-.927.793-1.482s1.7-.381,1.678-.162c0,.231-.615.418-1.225.838C144.316,139.456,143.906,139.952,143.692,139.863Z" fill="#8fcebb"/>
            </g>
            <g id="Group_33" data-name="Group 33">
              <path id="Path_73" data-name="Path 73" d="M153.257,135.1c.042.229-.693.508-1.549.746s-1.515.481-1.657.305.457-.826,1.43-1.086C152.435,134.8,153.218,134.887,153.257,135.1Z" fill="#8fcebb"/>
            </g>
          </g>
          <path id="Path_74" data-name="Path 74" d="M174.644,347.791s-1.045,13.24-4.909,12.939-4.6-18.346-4.6-18.346l2.506-6.476S170.048,365.881,174.644,347.791Z" fill="#0082c7"/>
          <path id="Path_75" data-name="Path 75" d="M97.6,292.5s-3.626-1.4-6.695-.422-13.878,4.8-14.707,6.887,11.194,1.811,11.194,1.811-4.479-.486-3.465-1.987C85.724,296.136,97.6,292.5,97.6,292.5Z" fill="#0082c7"/>
          <g id="Group_35" data-name="Group 35">
            <path id="Path_76" data-name="Path 76" d="M148,141.788c-.078.249-.813.239-1.621.481-.815.216-1.434.61-1.632.439-.207-.144.275-1.021,1.379-1.331S148.1,141.556,148,141.788Z" fill="#2c373f"/>
          </g>
          <g id="Group_36" data-name="Group 36">
            <path id="Path_77" data-name="Path 77" d="M152.457,140.026c-.177-.169.233-.964,1.083-1.7.86-.756,1.862-.921,1.934-.671s-.576.711-1.331,1.377S152.649,140.21,152.457,140.026Z" fill="#2c373f"/>
          </g>
          <path id="Path_78" data-name="Path 78" d="M232.662,204.246c1.342-.24,3.07-.379,3.724.815a3.126,3.126,0,0,1,.263,1.476,136.5,136.5,0,0,1-1.987,24.818c-.422,2.433-1.05,5.085-3.048,6.543-1.807,1.318-4.242,1.289-6.474,1.112a81.273,81.273,0,0,1-34.124-10.623c.425-5.465,3.563-10.132,6.433-14.623a71.559,71.559,0,0,0,4.154-7.038,62.657,62.657,0,0,0,2.08-6.232s9.8,2.812,13.21,3.514A41.857,41.857,0,0,0,232.662,204.246Z" fill="#0082c7"/>
          <g id="Group_37" data-name="Group 37">
            <path id="Path_79" data-name="Path 79" d="M197.935,228.989a74.3,74.3,0,0,0,6.762-12.466,66.663,66.663,0,0,0,3.411-13.737c.056-.352.109-.679.163-1,.327.091.66.183,1,.276-.021.283-.041.561-.065.865a50.887,50.887,0,0,1-3.053,14.171,55.073,55.073,0,0,1-7.307,12.523c-.571.752-1.093,1.422-1.56,2-.263-.123-.527-.246-.789-.371C196.912,230.586,197.391,229.835,197.935,228.989Z" fill="#fff"/>
            <path id="Path_80" data-name="Path 80" d="M212.761,203q.608.161,1.183.306a97.945,97.945,0,0,1-2.035,14.432,96.043,96.043,0,0,1-4.765,15.5c-.294.717-.571,1.36-.837,1.961-.3-.1-.589-.2-.883-.3a158.223,158.223,0,0,0,4.957-17.488C211.584,211.96,212.3,206.921,212.761,203Z" fill="#fff"/>
            <path id="Path_81" data-name="Path 81" d="M220.1,204.529c.422.054.843.1,1.267.144a117.22,117.22,0,0,1-1.888,13.263,113.547,113.547,0,0,1-4.362,15.745c-.51,1.407-.979,2.6-1.383,3.559-.249-.056-.5-.107-.745-.166,1.075-3.763,3.266-10.966,4.957-19.446C218.937,212.77,219.613,208.248,220.1,204.529Z" fill="#fff"/>
            <path id="Path_82" data-name="Path 82" d="M224.581,218.668c.6-3.168,1.227-6.174,1.847-8.9.4-1.8.82-3.448,1.163-4.956.424-.022.848-.041,1.272-.076-.273,1.638-.655,3.413-1.024,5.33-.529,2.732-1.11,5.735-1.72,8.888-1.192,6.31-2.186,12.039-2.929,16.186q-.373,2.088-.663,3.584c-.261-.029-.521-.052-.781-.084.078-1.019.192-2.238.348-3.658C222.56,230.786,223.385,225,224.581,218.668Z" fill="#fff"/>
            <path id="Path_83" data-name="Path 83" d="M230.8,217.919c.587-3.442,1.148-6.721,1.657-9.705.23-1.423.457-2.77.655-4.039a7.251,7.251,0,0,1,1.323-.081c-.152,1.364-.347,2.812-.552,4.334-.414,3.01-.929,6.311-1.542,9.762-1.223,6.905-2.623,13.1-3.776,17.55-.33,1.272-.635,2.38-.912,3.343-.283.012-.568.015-.853.011.19-1.028.418-2.22.686-3.6C228.354,231,229.577,224.795,230.8,217.919Z" fill="#fff"/>
          </g>
          <g id="Group_38" data-name="Group 38">
            <path id="Path_84" data-name="Path 84" d="M159.345,159.192c-.015-.051.268-.167.833-.344a10.878,10.878,0,0,1,1.059-.292l1.493-.179c.564-.05,1.194.015,1.887.025a22.447,22.447,0,0,1,2.219.36,19.9,19.9,0,0,1,5.05,2.088,23.64,23.64,0,0,1,9.376,10.476,24.115,24.115,0,0,1,1.721,8.219,67.93,67.93,0,0,1-.195,8.874c-.452,6-.855,11.7.344,16.675a29,29,0,0,0,5.923,12.052,20.634,20.634,0,0,0,7.2,5.546,22.478,22.478,0,0,0,2.354.881c.55.179.839.3.829.352s-.316.037-.9-.046a13.33,13.33,0,0,1-2.509-.623,19.617,19.617,0,0,1-7.8-5.382,29.055,29.055,0,0,1-6.5-12.448c-1.34-5.229-.949-11.15-.5-17.115a70.522,70.522,0,0,0,.225-8.682,20.886,20.886,0,0,0-10.145-17.838,20.161,20.161,0,0,0-4.7-2.185c-.738-.187-1.434-.36-2.079-.464-.652-.05-1.25-.159-1.789-.156l-1.442.031c-.417.032-.764.109-1.052.139C159.675,159.228,159.361,159.244,159.345,159.192Z" fill="#0082c7"/>
          </g>
          <path id="Path_85" data-name="Path 85" d="M174.111,242.79l-36.624-5.807,7.075-46.457,29.549,2.489Z" fill="#fff"/>
          <path id="Path_86" data-name="Path 86" d="M146.246,162.978a25.318,25.318,0,0,0-16.266,8.105c-7.072,7.754-13.437,36.3-13.084,41.94s38.9,16.917,38.9,16.917l1.415-7.4s-27.936-8.106-29-14.1c-1.051-5.937,12.826-26.4,13.08-26.78-.648.954,3.339-.362,3.456-.434,2.418-1.494,3.306-4.583,3.366-7.309C148.13,173.156,146.875,162.953,146.246,162.978Z" fill="#ffc5b1"/>
          <path id="Path_87" data-name="Path 87" d="M151.534,225.253c-.134,1.755.336.165-.105,2.472,3.9,3.3,9.357,2.412,9.357,2.412s5.86,5.606,6.767,4.474-5.144-5.892-5.144-5.892,7.738,3.572,8.267,2.333-9.155-4.541-9.155-4.541,10.971,2.02,10.57.386-10.6-3.963-10.6-3.963,10.243.517,9.929-.9-14.145-2.543-14.145-2.543c2.923-2.965.613-4.863.613-4.863l-6.758,7.585A18.072,18.072,0,0,1,151.534,225.253Z" fill="#ffc5b1"/>
        </g>
        <path id="Path_88" data-name="Path 88" d="M138.651,129.068a14.825,14.825,0,0,1-9.657-12.569c-.146-1.933.1-3.905-.332-5.8-1.122-4.938-6.224-7.68-10.47-10.461A52.563,52.563,0,0,1,99.9,79.543c-.926-1.887-1.79-3.9-3.413-5.24a11.215,11.215,0,0,0-5.763-2.071c-7.489-.995-15.58.478-21.346,5.343s-8.555,13.483-5.416,20.333c6.07,13.246,28.289,12.844,33.484,26.457.7,1.841,1.014,3.814,1.734,5.65a14.036,14.036,0,0,0,14.538,8.5c5.63-.773,10.587-5.005,16.26-4.675,1.816.106,3.654.685,5.421.253s3.285-2.563,2.23-4.041" fill="#8fcebb"/>
        <g id="Group_40" data-name="Group 40">
          <path id="Path_89" data-name="Path 89" d="M135.113,129.788a26.028,26.028,0,0,1-3.057,1.32c-1.971.826-4.728,2.211-8.133,3.982-1.709.874-3.584,1.84-5.674,2.746a33.727,33.727,0,0,1-6.95,2.265,23.627,23.627,0,0,1-8.131.322,17.153,17.153,0,0,1-4.21-1.172,14.569,14.569,0,0,1-3.8-2.453,22.34,22.34,0,0,1-4.935-7.192c-1.2-2.5-2.23-4.934-3.5-7.062A22.358,22.358,0,0,0,76.988,114a66.052,66.052,0,0,0-8.389-3.309,17.523,17.523,0,0,1-3.132-1.158,15.085,15.085,0,0,1,3.279.665,51.973,51.973,0,0,1,8.648,2.961,27.658,27.658,0,0,1,5.471,3.271,20.146,20.146,0,0,1,4.9,5.483c1.355,2.208,2.424,4.677,3.621,7.125a21.46,21.46,0,0,0,4.655,6.778,13.369,13.369,0,0,0,3.444,2.229,16.09,16.09,0,0,0,3.874,1.1,22.817,22.817,0,0,0,7.7-.237,33.763,33.763,0,0,0,6.757-2.08c2.068-.844,3.955-1.755,5.688-2.574a80.576,80.576,0,0,1,8.362-3.625A11.787,11.787,0,0,1,135.113,129.788Z" fill="#8fcebb"/>
        </g>
        <g id="Group_41" data-name="Group 41">
          <path id="Path_90" data-name="Path 90" d="M128.825,117.6c-.229,0-.179-2.744-.857-7.045a28.131,28.131,0,0,0-2.147-7.244,17.74,17.74,0,0,0-2.316-3.741,16.057,16.057,0,0,0-3.49-3.139,56.562,56.562,0,0,0-8.427-4.069c-2.682-1.156-5.089-2.213-7.1-3.119-4.029-1.811-6.486-3.016-6.415-3.183s2.656.731,6.777,2.322c2.061.8,4.506,1.764,7.213,2.858a50.732,50.732,0,0,1,8.69,4.093,16.726,16.726,0,0,1,3.765,3.426,18.117,18.117,0,0,1,2.419,4.051,26.325,26.325,0,0,1,1.963,7.617,33.854,33.854,0,0,1,.181,5.256A5.164,5.164,0,0,1,128.825,117.6Z" fill="#8fcebb"/>
        </g>
      </g>
    </g>
  </g>
</svg>
