<svg xmlns="http://www.w3.org/2000/svg" width="229" height="317" viewBox="0 0 229 317">
  <g id="Group_25" data-name="Group 25" transform="translate(-272.921 -88.199)">
    <g id="Group_24" data-name="Group 24">
      <path id="Path_3" data-name="Path 3" d="M422.446,207.791s.219.364.595,1.014c2.583,4.468,12.574,22.429,9.7,28.171-3.293,6.578,6.177,28.774-5.764,32.884s-32.937,6.987-34.173-10.687,21.41-56.726,21.41-56.726" fill="#2c373f"/>
      <path id="Path_4" data-name="Path 4" d="M354.627,256.924l1.6,29.774,44.718-17.761Z" fill="#e0a584"/>
      <g id="Group_4" data-name="Group 4">
        <path id="Path_5" data-name="Path 5" d="M344.187,362.514l10.969,7.053s-11.55,37.974-16.806,35.519c-3.986-1.863-2.668-4.76,1.3-15.775s-5.559-21.959-5.559-21.959Z" fill="#2c373f"/>
        <path id="Path_6" data-name="Path 6" d="M392.521,298.754s-16.909-23.512-17.687-29.167c0,0-73.66,27.421-74.959,43.832S337,373.825,337,373.825l8.676-8.661-17.717-44.572L355.3,308.6Z" fill="#0977a8"/>
      </g>
      <g id="Group_5" data-name="Group 5">
        <path id="Path_7" data-name="Path 7" d="M427.979,343.574s11.84-3.767,13.943-1.2c2.569,3.129,13.206,30.117,8.553,38.513-1.905,3.439-4.7-1.486-8.681-12.5a18.2,18.2,0,0,0-14.812-11.893Z" fill="#2c373f"/>
        <path id="Path_8" data-name="Path 8" d="M433.661,342.338s7.63,8.023.417,16.011c0,0-43.129,10.731-56.079-1.977-7.255-7.119-10.545-38.925-7.645-62.911l-3.962-38.7s10.613,5.391,14.241,7c6.932,3.065,28.2,11.138,28.2,11.138s-14.528,61.421-11.283,64.517S433.661,342.338,433.661,342.338Z" fill="#0082c7"/>
      </g>
      <path id="Path_9" data-name="Path 9" d="M387.59,199.519s-27.056-19.685-31.987-25.138-16.4-24.343-28.506-31.33l1.529-13.329s-1.073-.07-2.57,4.968c0,0-9.711-14.56-11.468-14.04s5.076,11.5,5.076,11.5-8.819-9.821-10.874-9.262,6.89,11.417,6.89,11.417-9.582-8.657-10.631-7.313,7.64,7.685,7.64,7.685-8.972-3.76-9.672-2.066,9.092,4.724,9.092,4.724,1.755,6.757,7.808,9.036c0,0,15.034,28.951,26.431,37.541l36.893,29.839Z" fill="#ffc5b1"/>
      <path id="Path_10" data-name="Path 10" d="M398.873,200.633s32.31-8.746,38.865-12.084,24.023-16.9,37.829-19.108l.588-12.639s3.776-.04,3.373,5.2c0,0,14.277-10.142,15.734-9.028s-8.854,8.932-8.854,8.932,11.749-6.032,13.469-4.778-10.518,8.209-10.518,8.209,12.045-4.671,12.543-3.043-9.882,4.456-9.882,4.456,9.726-.315,9.773,1.518-10.181,1.171-10.181,1.171-4.052,5.687-10.525,5.66c0,0-24,19.942-37.722,23.908l-39.727,19.465Z" fill="#ffc5b1"/>
      <path id="Path_11" data-name="Path 11" d="M402.623,193.654l13.024,9.9-1.35,13.159s-3.98,26.9-4.875,33.805c-1.392,10.735-.717,32.2-.717,32.2s-18.3,3.951-34.407,3.579c-1.775-.041-3.585-6.083-3.585-6.083s-2.164,4.921-4.057,4.6c-13.028-2.231-17.854-7.276-17.854-7.276s8.958-52.771,17.749-68.3,12.078-20.459,12.078-20.459l15.976,1.462Z" fill="#8fcebb"/>
      <path id="Path_12" data-name="Path 12" d="M369.7,207.147l-13.06-6.214s-2.878-8.039,10.5-19.6l18.442,8.576Z" fill="#8fcebb"/>
      <path id="Path_13" data-name="Path 13" d="M400.537,194.69c4.017-5.415,24.131-2.167,24.752-3.377,0,0,8.217,14.23,5.363,20.418,0,0-14.414,3.176-24.044,1.139C397.8,211.007,393.327,204.41,400.537,194.69Z" fill="#8fcebb"/>
      <path id="Path_14" data-name="Path 14" d="M401.367,184.56s-4.246,1.712-7.12,1.21a10.676,10.676,0,0,0,7.063.689Z" fill="#eda091"/>
      <path id="Path_15" data-name="Path 15" d="M388.441,189.706s7.409.239,16.014,5.728l-4.541,8.352-21.99-1.671,3.825-9.306Z" fill="#8fcebb"/>
      <g id="Group_6" data-name="Group 6">
        <path id="Path_16" data-name="Path 16" d="M399.772,301.293c-.021.187-1.142.281-2.821-.305a13.794,13.794,0,0,1-5.564-3.928,24.057,24.057,0,0,1-3.625-5.645c-.717-1.543-1.035-2.55-.852-2.651s.849.728,1.8,2.112a52.227,52.227,0,0,0,3.833,5.167A18.277,18.277,0,0,0,397.392,300C398.808,300.774,399.81,301.065,399.772,301.293Z" fill="#006fa1"/>
      </g>
      <g id="Group_7" data-name="Group 7">
        <path id="Path_17" data-name="Path 17" d="M357.859,287.1c.1.167-.492.8-1.711,1.458a12.887,12.887,0,0,1-10.51.546c-1.28-.531-1.939-1.1-1.853-1.272.19-.41,3.216.827,7.086.588C354.746,288.257,357.627,286.714,357.859,287.1Z" fill="#006491"/>
      </g>
      <g id="Group_8" data-name="Group 8">
        <path id="Path_18" data-name="Path 18" d="M431.208,346.972a11.867,11.867,0,0,1-3.067-.038c-1.964-.126-4.8-.355-8.3-.672l-12.288-1.193-7.252-.756c-1.262-.141-2.522-.255-3.855-.432a12.252,12.252,0,0,1-4.052-1.164,6.274,6.274,0,0,1-2.947-3.27,11.708,11.708,0,0,1-.73-4.03c-.03-2.589.089-5,.244-7.344a103.939,103.939,0,0,1,1.6-12.286c.667-3.463,1.391-6.224,1.952-8.112a10.919,10.919,0,0,1,1.061-2.877c.239.064-.876,4.267-1.941,11.173-.517,3.453-1.015,7.583-1.254,12.189-.114,2.29-.2,4.746-.152,7.2a10.387,10.387,0,0,0,.64,3.507,4.735,4.735,0,0,0,2.255,2.492c2.136,1.1,4.858,1.109,7.349,1.456l7.241.845,12.253,1.519c3.485.455,6.3.85,8.246,1.157A11.792,11.792,0,0,1,431.208,346.972Z" fill="#006fa1"/>
      </g>
      <g id="Group_9" data-name="Group 9">
        <path id="Path_19" data-name="Path 19" d="M385.021,345.225c.094.412-1.347,1.094-3.219,1.524s-3.468.441-3.564.028,1.347-1.1,3.219-1.524S384.926,344.81,385.021,345.225Z" fill="#006fa1"/>
      </g>
      <g id="Group_10" data-name="Group 10">
        <path id="Path_20" data-name="Path 20" d="M389.006,346.838c.083.427-1.2,1.017-2.587,1.933-1.4.892-2.465,1.821-2.821,1.572-.351-.219.3-1.777,1.983-2.859S388.947,346.43,389.006,346.838Z" fill="#006fa1"/>
      </g>
      <g id="Group_11" data-name="Group 11">
        <path id="Path_21" data-name="Path 21" d="M366.412,299.187a22.016,22.016,0,0,1-3.876,1.028c-2.507.582-6.129,1.441-10.544,2.7a145.016,145.016,0,0,0-15.214,5.266c-2.8,1.153-5.7,2.454-8.629,3.956-1.463.752-2.95,1.525-4.418,2.378-.71.421-1.55.845-2.133,1.271a1.492,1.492,0,0,0-.693,1.574,19.337,19.337,0,0,0,.62,2.4q.367,1.242.728,2.467c.489,1.631,1,3.231,1.508,4.8,1.032,3.133,2.094,6.132,3.157,8.971,2.151,5.668,4.293,10.7,6.221,14.863s3.579,7.5,4.738,9.793a21.378,21.378,0,0,1,1.684,3.635,18.9,18.9,0,0,1-2.209-3.349c-1.325-2.213-3.134-5.481-5.194-9.61s-4.324-9.145-6.563-14.825c-1.107-2.845-2.205-5.857-3.264-9.006-.522-1.576-1.044-3.185-1.542-4.827q-.367-1.233-.739-2.484a19.243,19.243,0,0,1-.673-2.661,3.235,3.235,0,0,1,.217-1.681,3.294,3.294,0,0,1,1.077-1.283c.826-.59,1.545-.924,2.3-1.376,1.493-.863,3-1.64,4.493-2.392,2.978-1.505,5.929-2.8,8.776-3.924a126.852,126.852,0,0,1,15.462-5c4.484-1.137,8.16-1.838,10.711-2.242A18.6,18.6,0,0,1,366.412,299.187Z" fill="#006491"/>
      </g>
      <path id="Path_22" data-name="Path 22" d="M430.209,360.018s.717-12.166-1.433-18.248c0,0,5.735-1.789,7.527-.716s6.093,17.891.358,19.68S430.209,360.018,430.209,360.018Z" fill="#2097d6"/>
      <path id="Path_23" data-name="Path 23" d="M332.828,368.832s2.282,6.267,5.149,6.983,11.23-7.566,10.871-10.786-5.735-5.725-5.735-5.725-3.187,8.679-10.223,9.593" fill="#2097d6"/>
      <g id="Group_12" data-name="Group 12">
        <path id="Path_24" data-name="Path 24" d="M386.124,210.8a9.59,9.59,0,0,1-.869,2.614c-.608,1.652-1.476,4.044-2.442,7.04-1.959,5.982-4.285,14.375-6.518,23.725s-3.862,17.905-4.791,24.126c-.205,1.558-.392,2.967-.554,4.206-.124,1.241-.231,2.311-.317,3.185a9.691,9.691,0,0,1-.279,2.735,9.516,9.516,0,0,1-.319-2.751c0-.888.026-1.974.058-3.239.076-1.258.191-2.689.332-4.27a201.977,201.977,0,0,1,4.374-24.346,208.458,208.458,0,0,1,6.987-23.727c1.1-2.972,2.139-5.328,2.921-6.922A9.566,9.566,0,0,1,386.124,210.8Z" fill="#6eb79f"/>
      </g>
      <path id="Path_25" data-name="Path 25" d="M413.064,191.528s-15.1,42.218-.378,53.149l-1.51,7.915s-24.541-17.716-3.776-60.687C407.4,191.905,412.686,188.513,413.064,191.528Z" fill="#2c373f"/>
      <path id="Path_26" data-name="Path 26" d="M387.583,190.59s-23.6,17.9-30.4,47.3c0,0-9.053-12.232,24.17-50.68Z" fill="#2c373f"/>
      <g id="Group_16" data-name="Group 16">
        <path id="Path_27" data-name="Path 27" d="M386.647,153.31c.744-.885,1.748-1.612,2.135-2.7.484-1.364-.143-2.913.243-4.309.667-2.412,3.741-3.043,6.24-3.231l10.614-.8a12.024,12.024,0,0,1,4.261.191A6.058,6.058,0,0,1,414,145.973c.5,1.264.566,2.668,1.032,3.947,1.466,4.012,6.74,6.535,6.333,10.785-.236,2.448-2.434,4.48-2.3,6.935.093,1.69,1.3,3.295.914,4.942-.426,1.8-2.477,2.617-4.25,3.154l-6.89,2.086c-2.08.629-4.355,1.254-6.375.452a9.417,9.417,0,0,1-2.9-2.122C395.314,172.076,380.786,160.274,386.647,153.31Z" fill="#0082c7"/>
        <path id="Path_28" data-name="Path 28" d="M412.153,160.6a3.79,3.79,0,0,1,2.868,3.825c-.1,3.14-2.031,13.11-9.025,15.574-.287.1,2.848-18.087,2.848-18.087Z" fill="#0082c7"/>
        <path id="Path_29" data-name="Path 29" d="M385.673,197.958s6.347-10.315,4.965-12.876c-.349-.645-2.036-1.246-2.75-2.092-3.836-4.547-.774-21.406,3.278-26.31,3.188-3.858,1.32-3.346,11.932-1.659s9.228,12.436,7.206,18.513c-1.91,5.743-5.327,9.235-8.938,11.027l-.386,8.6-1.894,2.433-2.842,2.708Z" fill="#ffc5b1"/>
        <path id="Path_30" data-name="Path 30" d="M410.3,173.533s2.864-1.325,3.965.495-4.592,4.079-7.289,3.456Z" fill="#ffc5b1"/>
        <path id="Path_31" data-name="Path 31" d="M399.508,171.912c-.089.836.849,1.621,2.094,1.752s2.327-.437,2.416-1.271-.848-1.619-2.093-1.752S399.6,171.077,399.508,171.912Z" fill="#f4b19f"/>
        <path id="Path_32" data-name="Path 32" d="M387.682,169.589c-.09.836.848,1.619,2.093,1.752s2.327-.437,2.416-1.271-.848-1.621-2.093-1.752S387.771,168.754,387.682,169.589Z" fill="#f4b19f"/>
        <g id="Group_13" data-name="Group 13">
          <path id="Path_33" data-name="Path 33" d="M405.264,166.053c.244-.391.078-1.589-1.827-2.538-1.931-.977-3.314-.121-3.326.368-.028.487.7.874,2.394,1.733C404.217,166.464,405,166.483,405.264,166.053Z" fill="#0082c7"/>
        </g>
        <g id="Group_14" data-name="Group 14">
          <path id="Path_34" data-name="Path 34" d="M395.952,163.037c.049-.432-.575-1.385-2.578-1.427-2.037-.056-2.871,1.227-2.683,1.648.171.425.947.462,2.736.513C395.225,163.807,395.9,163.506,395.952,163.037Z" fill="#0082c7"/>
        </g>
        <path id="Path_35" data-name="Path 35" d="M394.183,167.137a.6.6,0,1,1-.6-.6A.6.6,0,0,1,394.183,167.137Z" fill="#2c373f"/>
        <path id="Path_36" data-name="Path 36" d="M390.114,189.706l-2.322,17.28,13.2-13.877-5.621-3.642Z" fill="#ffc5b1"/>
        <path id="Path_37" data-name="Path 37" d="M398.149,195.735l2.968-3.794,4.2,2.027-6.117,2.181,1.912,3.341-13.385,7.636Z" fill="#6eb79f"/>
        <path id="Path_38" data-name="Path 38" d="M387.792,206.986l2.322-17.28-4.737-.4,2.844,3.858-3.274,1.072Z" fill="#6eb79f"/>
        <path id="Path_39" data-name="Path 39" d="M409.3,168.667a7.17,7.17,0,0,0-4.3-10.419c-3.4-.965-7.67.467-10.2-2-.409-.4-.794-.913-1.362-.992-1.06-.147-2.045,1.318-2.98.8a1.3,1.3,0,0,1-.533-1.218c.069-1.778,1.82-3.034,3.53-3.534s3.563-.551,5.157-1.347c1.316-.658,2.515-1.832,3.986-1.736a4.97,4.97,0,0,1,2.31,1.006,18.156,18.156,0,0,1,5.074,4.331,13.308,13.308,0,0,1,1.458,2.81,25.2,25.2,0,0,1,1.521,12.741c-.267,1.894-.969,4.338-3.119,4.618C408.465,173.9,408.4,170.271,409.3,168.667Z" fill="#0082c7"/>
        <path id="Path_40" data-name="Path 40" d="M409.121,171.155s-.9,4.833-4.183,5.25-8.776-5.328-14.1-4.057c-4.439,1.059-4.566.173-4.566.173s-2.492,4.218-5.592,5.793c-5.275,2.681-4.805,9.734,4.876,11.464s23.279-4.594,24.465-16.655Z" fill="#0082c7"/>
        <g id="Group_15" data-name="Group 15">
          <path id="Path_41" data-name="Path 41" d="M394.652,172.5c-.016.056-.22.049-.584.055a4.734,4.734,0,0,1-1.632-.171,1.889,1.889,0,0,1-.968-.828,1.229,1.229,0,0,1,.292-1.559,1.914,1.914,0,0,1,1.621-.328c.532.113.97.286,1.455.437l.707.235c.231.076.314.078.4.037a1.56,1.56,0,0,0,.536-.884,7.121,7.121,0,0,0,.378-2.164c.021-1.271-.245-2.057-.122-2.1.083-.042.563.7.7,2.078a6.545,6.545,0,0,1-.239,2.412,2.119,2.119,0,0,1-.9,1.37,1.289,1.289,0,0,1-1.008.019l-.712-.232c-.974-.32-1.866-.71-2.351-.3-.5.324-.062,1.045.438,1.277a7.792,7.792,0,0,0,1.438.384C394.478,172.335,394.668,172.451,394.652,172.5Z" fill="#ff6072"/>
        </g>
        <path id="Path_42" data-name="Path 42" d="M389.3,174.926l8.042.8S391.64,184.709,389.3,174.926Z" fill="#fff"/>
        <path id="Path_43" data-name="Path 43" d="M401.675,168.675a.6.6,0,1,1-.6-.6A.6.6,0,0,1,401.675,168.675Z" fill="#2c373f"/>
      </g>
      <g id="Group_17" data-name="Group 17">
        <path id="Path_44" data-name="Path 44" d="M342.441,386.168c-.146.171-1.156-.508-2.8-1.486a28.3,28.3,0,0,0-2.949-1.533,18.945,18.945,0,0,0-1.807-.689c-.318-.1-.644-.2-.977-.277a2.368,2.368,0,0,0-.794-.126c-.024,0-.009,0-.02,0v.007c-.055-.033.175.125.272.185.247.17.5.319.754.462a11.678,11.678,0,0,0,1.511.711,13.594,13.594,0,0,0,2.732.742c1.6.254,2.633.187,2.666.4.036.168-.968.605-2.745.615a11.132,11.132,0,0,1-4.848-1.176c-.294-.15-.591-.308-.88-.494a3.806,3.806,0,0,1-.529-.363,1.459,1.459,0,0,1,.894-2.615,3.513,3.513,0,0,1,1.375.17c.368.1.725.213,1.073.331a15.819,15.819,0,0,1,1.936.838,17.765,17.765,0,0,1,2.957,1.917C341.813,385.044,342.571,386.019,342.441,386.168Z" fill="#2c373f"/>
      </g>
      <g id="Group_18" data-name="Group 18">
        <path id="Path_45" data-name="Path 45" d="M342.052,385.423c.156.078-.219,1.207-1.69,2.286a9.056,9.056,0,0,1-2.817,1.342,12.31,12.31,0,0,1-1.792.381,7.973,7.973,0,0,1-2.074.076,1.955,1.955,0,0,1-1.311-.733,1.6,1.6,0,0,1-.121-1.64,2.6,2.6,0,0,1,.808-.923,4.52,4.52,0,0,1,.871-.483,10.031,10.031,0,0,1,3.01-.766c1.722-.158,2.761-.022,2.786.175.029.222-1.007.476-2.586.892a12.747,12.747,0,0,0-2.591.973,3.449,3.449,0,0,0-.595.371,1.235,1.235,0,0,0-.342.4c-.035.109-.008.071,0,.1a.618.618,0,0,0,.324.118,8.379,8.379,0,0,0,1.642-.055,14.694,14.694,0,0,0,1.621-.257,11.011,11.011,0,0,0,2.6-.894C341.194,386.087,341.852,385.279,342.052,385.423Z" fill="#2c373f"/>
      </g>
      <g id="Group_19" data-name="Group 19">
        <path id="Path_46" data-name="Path 46" d="M441.385,363.252c.1.016.171.312.044.823a4.868,4.868,0,0,1-1.066,1.874c-.582.681-1.283,1.383-2.078,2.187l-1.27,1.245a2.16,2.16,0,0,1-1.235.643,1.687,1.687,0,0,1-1.514-.719,2.029,2.029,0,0,1-.378-1.434,3.079,3.079,0,0,1,.382-1.156,5.378,5.378,0,0,1,1.281-1.552,9.456,9.456,0,0,1,2.765-1.552c1.658-.6,2.739-.686,2.8-.5.072.213-.9.671-2.338,1.481a11.58,11.58,0,0,0-2.276,1.619c-.691.6-1.363,1.882-1,2.184a.269.269,0,0,0,.125.108.848.848,0,0,0,.374-.239l1.312-1.162c.841-.739,1.649-1.39,2.268-1.914C440.857,364.165,441.172,363.229,441.385,363.252Z" fill="#2c373f"/>
      </g>
      <g id="Group_20" data-name="Group 20">
        <path id="Path_47" data-name="Path 47" d="M442.9,364.433c.209.071-.08,1.387-.457,3.495-.188,1.058-.382,2.3-.549,3.716a9.062,9.062,0,0,1-.549,2.369,4.081,4.081,0,0,1-.787,1.222,2.566,2.566,0,0,1-1.5.827,1.969,1.969,0,0,1-1.753-.749,3.228,3.228,0,0,1-.648-1.38,5.357,5.357,0,0,1,.072-2.568,8.164,8.164,0,0,1,2.073-3.5c1.588-1.584,2.684-2.32,2.825-2.2.185.156-.706,1.236-1.992,2.9a8.177,8.177,0,0,0-1.53,3.132,4.2,4.2,0,0,0,.014,1.886,1.808,1.808,0,0,0,.357.753c.168.187.273.215.391.2a1.129,1.129,0,0,0,.59-.364,2.715,2.715,0,0,0,.506-.76,8.708,8.708,0,0,0,.529-1.984,29.441,29.441,0,0,1,.894-3.759C442.053,365.566,442.711,364.364,442.9,364.433Z" fill="#2c373f"/>
      </g>
      <g id="Group_23" data-name="Group 23">
        <path id="Path_48" data-name="Path 48" d="M272.921,129.453l35.9,29.078,33.362-45L310.575,88.2Z" fill="#ff6072"/>
        <g id="Group_21" data-name="Group 21">
          <path id="Path_49" data-name="Path 49" d="M285.677,115.1c.536-.044,1.074,6.264,1.7,13.991s1.116,13.947.58,13.991-1.484-6.185-2.115-13.912S285.139,115.138,285.677,115.1Z" fill="#fff"/>
        </g>
        <g id="Group_22" data-name="Group 22">
          <path id="Path_50" data-name="Path 50" d="M324.952,97.808c.092.51-5.931,1.771-13.6,2.6-7.663.81-13.941.978-13.972.463-.035-.56,6.143-1.3,13.723-2.1C318.684,97.955,324.854,97.259,324.952,97.808Z" fill="#fff"/>
        </g>
      </g>
      <path id="Path_51" data-name="Path 51" d="M327.1,143.05l1.879-15.773s-4.432.116-4.549,10.013l-1.283,3.26,1.984,2.679Z" fill="#ffc5b1"/>
    </g>
  </g>
</svg>
