<svg xmlns="http://www.w3.org/2000/svg" width="1098" height="1098" viewBox="0 0 1098 1098">
  <path id="bg_shape" data-name="bg shape" d="M219,2524a557.769,557.769,0,0,1-56.132-2.835,550.323,550.323,0,0,1-54.511-8.319c-17.686-3.619-35.387-8.17-52.613-13.528-17.031-5.3-34-11.509-50.44-18.461-16.286-6.888-32.433-14.667-47.99-23.118-15.446-8.39-30.675-17.643-45.265-27.5-14.518-9.808-28.738-20.442-42.264-31.6-13.495-11.137-26.611-23.058-38.987-35.433s-24.3-25.494-35.434-38.987c-11.163-13.526-21.8-27.746-31.6-42.264-9.856-14.588-19.108-29.817-27.5-45.265-8.452-15.559-16.23-31.7-23.118-47.99-6.952-16.437-13.163-33.407-18.461-50.44-5.357-17.225-9.909-34.927-13.528-52.613a550.352,550.352,0,0,1-8.319-54.511,557.206,557.206,0,0,1,0-112.264,550.336,550.336,0,0,1,8.319-54.511c3.619-17.687,8.171-35.388,13.528-52.613,5.3-17.032,11.509-34,18.461-50.44,6.888-16.286,14.666-32.432,23.118-47.99,8.392-15.448,17.644-30.678,27.5-45.265,9.808-14.517,20.441-28.737,31.6-42.264,11.136-13.493,23.057-26.61,35.434-38.986s25.493-24.3,38.987-35.434c13.527-11.163,27.747-21.8,42.264-31.6,14.587-9.854,29.816-19.107,45.265-27.5,15.559-8.452,31.7-16.23,47.99-23.118,16.437-6.952,33.407-13.164,50.44-18.461,17.224-5.357,34.925-9.909,52.613-13.528a550.358,550.358,0,0,1,54.511-8.319,557.219,557.219,0,0,1,112.264,0,550.379,550.379,0,0,1,54.511,8.319c17.688,3.62,35.389,8.171,52.613,13.528,17.032,5.3,34,11.509,50.44,18.461,16.285,6.888,32.432,14.666,47.991,23.118,15.449,8.393,30.679,17.645,45.265,27.5,14.517,9.808,28.737,20.441,42.264,31.6,13.494,11.136,26.611,23.058,38.987,35.434s24.3,25.493,35.433,38.986c11.163,13.527,21.8,27.747,31.6,42.264,9.856,14.589,19.108,29.818,27.5,45.265,8.451,15.558,16.23,31.7,23.118,47.99,6.953,16.438,13.164,33.409,18.461,50.44,5.357,17.224,9.909,34.925,13.528,52.613a550.309,550.309,0,0,1,8.319,54.511,557.206,557.206,0,0,1,0,112.264,550.325,550.325,0,0,1-8.319,54.511c-3.62,17.688-8.171,35.39-13.528,52.613-5.3,17.031-11.508,34-18.461,50.44-6.888,16.286-14.667,32.432-23.118,47.99-8.391,15.447-17.643,30.676-27.5,45.265-9.808,14.518-20.442,28.738-31.6,42.264-11.136,13.493-23.057,26.61-35.433,38.987s-25.491,24.3-38.987,35.433c-13.526,11.163-27.746,21.8-42.264,31.6-14.59,9.856-29.819,19.109-45.265,27.5-15.558,8.452-31.7,16.23-47.991,23.118-16.439,6.953-33.409,13.164-50.44,18.461-17.226,5.358-34.927,9.909-52.613,13.528a550.338,550.338,0,0,1-54.511,8.319A557.772,557.772,0,0,1,219,2524Zm0-941.16c-216.238,0-392.16,175.922-392.16,392.16S2.762,2367.16,219,2367.16,611.16,2191.238,611.16,1975,435.238,1582.84,219,1582.84Z" transform="translate(330 -1426)" fill="rgba(221,241,250,0.6)"/>
</svg>
